{
  "accessors": [
    {
      "bufferView": 2,
      "componentType": 5126,
      "count": 2989,
      "max": [
        0.9365860223770142,
        1.7386469841003418,
        4.355897903442383
      ],
      "min": [
        -0.9365860223770142,
        -3.4014580249786377,
        -0.014400999993085861
      ],
      "type": "VEC3"
    },
    {
      "bufferView": 2,
      "byteOffset": 35868,
      "componentType": 5126,
      "count": 2989,
      "max": [
        0.9993373155593872,
        0.9987115859985352,
        0.99693363904953
      ],
      "min": [
        -0.9994106292724609,
        -0.9998784065246582,
        -0.9997959733009338
      ],
      "type": "VEC3"
    },
    {
      "bufferView": 1,
      "componentType": 5126,
      "count": 2989,
      "max": [
        0.9915189743041992,
        0.9939550161361694
      ],
      "min": [
        0.0,
        0.0
      ],
      "type": "VEC2"
    },
    {
      "bufferView": 0,
      "componentType": 5125,
      "count": 13584,
      "type": "SCALAR"
    },
    {
      "bufferView": 2,
      "byteOffset": 71736,
      "componentType": 5126,
      "count": 1359,
      "max": [
        1.1159319877624512,
        0.39670300483703613,
        3.292479991912842
      ],
      "min": [
        -1.1219910383224487,
        -4.224691867828369,
        -0.014400999993085861
      ],
      "type": "VEC3"
    },
    {
      "bufferView": 2,
      "byteOffset": 88044,
      "componentType": 5126,
      "count": 1359,
      "max": [
        0.995120644569397,
        0.9998118281364441,
        0.9977930784225464
      ],
      "min": [
        -0.995120644569397,
        -0.9991281628608704,
        -1.0
      ],
      "type": "VEC3"
    },
    {
      "bufferView": 1,
      "byteOffset": 23912,
      "componentType": 5126,
      "count": 1359,
      "max": [
        0.991582989692688,
        0.9767810106277466
      ],
      "min": [
        0.02225000038743019,
        0.020385000854730606
      ],
      "type": "VEC2"
    },
    {
      "bufferView": 0,
      "byteOffset": 54336,
      "componentType": 5125,
      "count": 5898,
      "type": "SCALAR"
    }
  ],
  "asset": {
    "extras": {
      "author": "Guilherme Navarro (https://sketchfab.com/guinavarro.al)",
      "license": "CC-BY-4.0 (http://creativecommons.org/licenses/by/4.0/)",
      "source": "https://sketchfab.com/3d-models/ellie-ice-age-f37bf7be2f0a43c986708830ef9119ff",
      "title": "Ellie (Ice Age)"
    },
    "generator": "Sketchfab-16.28.0",
    "version": "2.0"
  },
  "bufferViews": [
    {
      "buffer": 0,
      "byteLength": 77928,
      "name": "floatBufferViews",
      "target": 34963
    },
    {
      "buffer": 0,
      "byteLength": 34784,
      "byteOffset": 77928,
      "byteStride": 8,
      "name": "floatBufferViews",
      "target": 34962
    },
    {
      "buffer": 0,
      "byteLength": 104352,
      "byteOffset": 112712,
      "byteStride": 12,
      "name": "floatBufferViews",
      "target": 34962
    }
  ],
  "buffers": [
    {
      "byteLength": 217064,
      "uri": "scene.bin"
    }
  ],
  "images": [
    {
      "uri": "textures/EllieBody_baseColor.png"
    },
    {
      "uri": "textures/EllieParts_baseColor.png"
    }
  ],
  "materials": [
    {
      "doubleSided": true,
      "name": "EllieBody",
      "pbrMetallicRoughness": {
        "baseColorTexture": {
          "index": 0
        },
        "metallicFactor": 0.0
      }
    },
    {
      "alphaMode": "BLEND",
      "doubleSided": true,
      "name": "EllieParts",
      "pbrMetallicRoughness": {
        "baseColorTexture": {
          "index": 1
        },
        "metallicFactor": 0.0
      }
    }
  ],
  "meshes": [
    {
      "name": "Object_0",
      "primitives": [
        {
          "attributes": {
            "NORMAL": 1,
            "POSITION": 0,
            "TEXCOORD_0": 2
          },
          "indices": 3,
          "material": 0,
          "mode": 4
        }
      ]
    },
    {
      "name": "Object_1",
      "primitives": [
        {
          "attributes": {
            "NORMAL": 5,
            "POSITION": 4,
            "TEXCOORD_0": 6
          },
          "indices": 7,
          "material": 1,
          "mode": 4
        }
      ]
    }
  ],
  "nodes": [
    {
      "children": [
        1
      ],
      "matrix": [
        1.0,
        0.0,
        0.0,
        0.0,
        0.0,
        2.220446049250313e-16,
        -1.0,
        0.0,
        0.0,
        1.0,
        2.220446049250313e-16,
        0.0,
        0.0,
        0.0,
        0.0,
        1.0
      ],
      "name": "Sketchfab_model"
    },
    {
      "children": [
        2,
        3
      ],
      "name": "Ellie.obj.cleaner.materialmerger.gles"
    },
    {
      "mesh": 0,
      "name": "Object_2"
    },
    {
      "mesh": 1,
      "name": "Object_3"
    }
  ],
  "samplers": [
    {
      "magFilter": 9729,
      "minFilter": 9987,
      "wrapS": 10497,
      "wrapT": 10497
    }
  ],
  "scene": 0,
  "scenes": [
    {
      "name": "Sketchfab_Scene",
      "nodes": [
        0
      ]
    }
  ],
  "textures": [
    {
      "sampler": 0,
      "source": 0
    },
    {
      "sampler": 0,
      "source": 1
    }
  ]
}
